<?xml version="1.0" encoding="utf-8"?>
<!-- Generator: Adobe Illustrator 21.0.0, SVG Export Plug-In . SVG Version: 6.00 Build 0)  -->
<svg version="1.1" id="Lager_1" xmlns="http://www.w3.org/2000/svg" xmlns:xlink="http://www.w3.org/1999/xlink" x="0px" y="0px"
	 viewBox="0 0 306.946 290.216" style="enable-background:new 0 0 306.946 290.216;" xml:space="preserve">
<path d="M116.3,288.787c1.254-0.943,2.465-1.953,3.77-2.82c21.46-14.269,38.603-32.652,51.656-54.794
	c2.352-3.99,4.976-5.455,9.531-5.346c11.99,0.287,23.995,0.291,35.986,0.028c10.522-0.231,18.708-4.831,22.975-14.77
	c3.957-9.217,2.636-17.997-3.89-25.691c-4.393-5.18-10.082-8.156-17.001-8.249c-7.496-0.101-14.995-0.067-22.493-0.062
	c-2.402,0.002-4.411-0.218-3.848-3.525c3.333-19.566,2.839-39.132-0.086-58.693c-0.045-0.301,0.153-0.637,0.507-1.978
	c5.617,0,11.541,0.072,17.461-0.026c3.818-0.063,7.713,0.051,11.433-0.655c12.99-2.465,20.974-13.329,19.802-26.466
	c-1.065-11.934-11.564-21.391-24.177-21.519c-12.828-0.129-25.662,0.118-38.485-0.184c-2.234-0.053-5.441-1.406-6.48-3.171
	c-14.041-23.847-32.549-43.333-55.763-58.375c-0.647-0.419-1.169-1.031-2.885-2.575c3.021,0,4.737,0,6.452,0
	c32.49,0.007,64.986-0.361,97.469,0.122c35.652,0.531,62.528,16.972,78.543,48.601c16.043,31.685,12.802,62.907-7.591,92.054
	c-2.371,3.389-2.192,5.364,0.154,8.581c39.204,53.765,7.18,130.113-58.617,139.549c-8.848,1.269-17.937,1.117-26.916,1.162
	c-27.158,0.137-54.317,0.048-81.476,0.047c-1.903,0-3.806,0-5.709,0C116.514,289.618,116.407,289.203,116.3,288.787z"/>
<path d="M0.113,31.821C0.118,22.659,0.13,13.496,0.109,4.334C0.104,1.956,0.437,0.097,3.515,0
	c26.799-0.842,53.451-0.228,78.42,11.187c52.356,23.936,82.776,64.317,88.38,121.864c7.347,75.447-47.134,144.69-123.722,155.631
	c-13.913,1.988-28.24,1.058-42.374,1.529c-3.046,0.102-4.086-1.326-4.078-4.225c0.053-18.491,0.083-36.983-0.025-55.473
	c-0.022-3.745,1.91-4.333,5.012-4.398c11.307-0.237,22.751,0.373,33.891-1.166c35.425-4.896,63.598-34.914,67.288-70.61
	c5.063-48.971-31.585-89.927-80.716-90.189c-6.497-0.035-13.002-0.209-19.488,0.059c-4.436,0.184-6.268-1.164-6.092-5.905
	C0.342,49.488,0.109,40.65,0.113,31.821z"/>
</svg>
