<?xml version="1.0" encoding="utf-8"?>
<!-- Generator: Adobe Illustrator 21.0.0, SVG Export Plug-In . SVG Version: 6.00 Build 0)  -->
<svg version="1.1" xmlns="http://www.w3.org/2000/svg" xmlns:xlink="http://www.w3.org/1999/xlink" x="0px" y="0px"
	 viewBox="0 0 262.25 100.206" style="enable-background:new 0 0 262.25 100.206;" xml:space="preserve">
<style type="text/css">
	.st0{fill:url(#XMLID_3_);}
	.st1{fill:url(#SVGID_1_);}
	.st2{display:none;}
	.st3{fill:#FFFFFF;}
</style>
<g id="Lager_2">
</g>
<g id="Lager_1">
</g>
<g id="Lager_3">
</g>
<g id="Lager_4">
</g>
<g id="Lager_5">
	<g>
		<path class="st3" d="M16.414,29.425c2.162,0,4.46,0,6.883,0c0.137,2.359,0.272,4.686,0.407,7.012
			c3.359-5.125,7.93-8.012,14.055-8.056c6.343-0.046,10.633,3.101,13.162,9.003c0.372-0.551,0.692-1.022,1.01-1.494
			c4.077-6.052,10.87-8.824,17.605-7.043c6.109,1.615,9.184,6.072,10.486,11.907c0.509,2.281,0.73,4.667,0.755,7.009
			c0.087,8.397,0.034,16.796,0.034,25.193c0,0.436,0,0.873,0,1.396c-2.671,0-5.285,0-8.04,0c0-0.474,0-0.945,0-1.416
			c0-8.078,0.056-16.157-0.038-24.234c-0.025-2.135-0.317-4.315-0.836-6.387c-0.904-3.609-3.005-6.27-6.895-6.984
			c-4.218-0.774-7.514,0.837-10.02,4.186c-1.585,2.118-2.253,4.556-2.252,7.19c0.003,8.758,0.001,17.516,0.001,26.274
			c0,0.434,0,0.868,0,1.379c-2.688,0-5.3,0-8.04,0c0-0.507,0-0.979,0-1.451c0-8.478,0.039-16.956-0.032-25.433
			c-0.015-1.778-0.237-3.607-0.705-5.32c-2.275-8.335-11.105-8.827-15.802-3.811c-2.362,2.523-3.622,5.513-3.622,8.999
			c0.001,8.518,0,17.036,0,25.554c0,0.473,0,0.946,0,1.478c-2.703,0-5.286,0-8.116,0C16.414,59.415,16.414,44.453,16.414,29.425z"/>
		<path class="st3" d="M168.129,74.439c-2.852,0-5.57-0.033-8.288,0.02c-0.814,0.016-0.866-0.508-1.035-1.023
			c-2.379-7.286-4.761-14.571-7.136-21.858c-4.206-12.904-8.407-25.81-12.609-38.716c-0.107-0.329-0.196-0.665-0.348-1.183
			c2.394,0,4.646-0.188,6.91-0.163c2.265,0.025,1.738-0.179,2.402,1.945c4.587,14.668,9.172,29.337,13.71,44.02
			c0.847,2.742,1.481,5.55,2.273,8.552c0.65-2.361,1.156-4.562,1.861-6.697c4.006-12.129,8.053-24.244,12.099-36.359
			c1.151-3.445,2.368-6.869,3.505-10.318c0.237-0.718,0.546-1.015,1.337-0.999c2.51,0.051,5.022,0.019,7.74,0.019
			C183.049,32.683,175.603,53.523,168.129,74.439z"/>
		<path class="st3" d="M90.827,53.354c0.019-7.077,1.373-12.597,5.213-17.239c4.894-5.917,11.412-8.155,18.895-7.647
			c12.396,0.842,19.46,10.244,19.875,21.787c0.175,4.868-0.457,9.601-2.819,13.927c-3.969,7.268-10.328,10.861-18.449,11.217
			c-8.774,0.385-15.627-3.094-19.929-10.943C91.534,60.662,90.771,56.51,90.827,53.354z M99.17,50.73
			c-0.001,6.32,1.392,10.662,4.084,13.948c4.975,6.072,13.72,6.167,18.81,0.205c5.423-6.352,5.833-17.994,0.882-25.036
			c-4.953-7.044-15.193-7.118-20.228-0.118C100.102,43.368,99.211,47.539,99.17,50.73z"/>
		<path class="st3" d="M248.327,29.455c0,1.63,0.019,3.184-0.017,4.738c-0.007,0.287-0.181,0.61-0.366,0.848
			c-7.837,10.161-15.68,20.316-23.533,30.465c-0.579,0.748-1.229,1.441-2.025,2.368c8.916,0,17.562,0,26.295,0
			c0,2.226,0,4.32,0,6.491c-12.152,0-24.284,0-36.547,0c0-1.469-0.043-2.899,0.028-4.323c0.019-0.386,0.337-0.792,0.598-1.126
			c8.392-10.74,16.793-21.472,25.191-32.207c0.114-0.146,0.204-0.311,0.406-0.623c-8.168,0-16.177,0-24.267,0
			c0-2.254,0-4.395,0-6.631C225.441,29.455,236.812,29.455,248.327,29.455z"/>
		<path class="st3" d="M195.617,29.421c2.671,0,5.294,0,8.015,0c0,14.963,0,29.9,0,44.928c-2.611,0-5.269,0-8.015,0
			C195.617,59.414,195.617,44.448,195.617,29.421z"/>
	</g>
	<path class="st3" d="M13,18.101h134.228V11.87c0-0.195-0.158-0.353-0.353-0.353H13V18.101z"/>
	<path class="st3" d="M250.75,11.497h-68.106c-0.549,0-0.994,0.445-0.994,0.994v5.589h69.1V11.497z"/>
	<rect x="13" y="82.768" class="st3" width="237.75" height="6.831"/>
</g>
</svg>
